<svg width="574" height="1181" viewBox="0 0 574 1181" fill="none" xmlns="http://www.w3.org/2000/svg">
<path d="M110.484 212.531L191.333 165.853L272.183 212.531V305.888L191.333 352.567L110.484 305.888V212.531Z" fill="#fff7ed" fill-opacity="0.13" stroke="#fff7ed" stroke-width="4"/>
<path d="M206.15 374.175L287 327.496L367.85 374.175V467.532L287 514.211L206.15 467.532V374.175Z" fill="#fff7ed" fill-opacity="0.13" stroke="#fff7ed" stroke-width="4"/>
<path d="M301.817 212.531L382.667 165.853L463.516 212.531V305.888L382.667 352.567L301.817 305.888V212.531Z" fill="#fff7ed" fill-opacity="0.13" stroke="#fff7ed" stroke-width="4"/>
<path d="M206.15 49.238L287 2.5594L367.85 49.238V142.595L287 189.274L206.15 142.595V49.238Z" fill="#fff7ed" fill-opacity="0.13" stroke="#fff7ed" stroke-width="4"/>
<path d="M14.8169 374.175L95.6667 327.496L176.516 374.175V467.532L95.6667 514.211L14.8169 467.532V374.175Z" fill="#fff7ed" fill-opacity="0.13" stroke="#fff7ed" stroke-width="4"/>
<path d="M110.484 537.468L191.333 490.789L272.183 537.468V630.825L191.333 677.504L110.484 630.825V537.468Z" fill="#fff7ed" fill-opacity="0.13" stroke="#fff7ed" stroke-width="4"/>
<path d="M206.15 699.112L287 652.433L367.85 699.112V792.469L287 839.147L206.15 792.469V699.112Z" fill="#fff7ed" fill-opacity="0.13" stroke="#fff7ed" stroke-width="4"/>
<path d="M397.484 699.112L478.333 652.433L559.183 699.112V792.469L478.333 839.147L397.484 792.469V699.112Z" fill="#fff7ed" fill-opacity="0.13" stroke="#fff7ed" stroke-width="4"/>
<path d="M110.484 864.879L191.333 818.2L272.183 864.879V958.236L191.333 1004.91L110.484 958.236V864.879Z" fill="#fff7ed" fill-opacity="0.13" stroke="#fff7ed" stroke-width="4"/>
<path d="M301.817 864.879L382.667 818.2L463.516 864.879V958.236L382.667 1004.91L301.817 958.236V864.879Z" fill="#fff7ed" fill-opacity="0.13" stroke="#fff7ed" stroke-width="4"/>
<path d="M301.817 537.468L382.667 490.789L463.516 537.468V630.825L382.667 677.504L301.817 630.825V537.468Z" fill="#fff7ed" fill-opacity="0.13" stroke="#fff7ed" stroke-width="4"/>
<path d="M14.8169 699.112L95.6667 652.433L176.516 699.112V792.469L95.6667 839.147L14.8169 792.469V699.112Z" fill="#fff7ed" fill-opacity="0.13" stroke="#fff7ed" stroke-width="4"/>
<path d="M206.15 1038.07L287 991.39L367.85 1038.07V1131.43L287 1178.1L206.15 1131.43V1038.07Z" fill="#fff7ed" fill-opacity="0.13" stroke="#fff7ed" stroke-width="4"/>
</svg>
